<svg xmlns="http://www.w3.org/2000/svg" version="1.1" xmlns:xlink="http://www.w3.org/1999/xlink" xmlns:svgjs="http://svgjs.dev/svgjs" width="112" height="129"><svg id="SvgjsSvg1001" data-name="Layer 1" xmlns="http://www.w3.org/2000/svg" viewBox="0 0 112 129"><defs><style>.cls-1{fill:#ff7f0e;}.cls-2{fill:#3278c3;}</style></defs><path class="cls-1" d="M93,15.56c-12.21-9-38.76,5.68-59.27,32.87S6.44,105,18.66,114c10,7.41,29.69-1.15,47.76-19.49-15.22,15-31.35,22-40.4,16.32-.29-.17-.58-.35-.86-.54-10.25-7.27-6.84-29.85,7.17-52.88,1.7-2.82,3.55-5.65,5.56-8.46C56.34,23.24,80.68,9.05,92.26,17.28,101,23.51,100,40.79,90.93,60L91,60C100.66,40.14,102,22.26,93,15.56Z"></path><path class="cls-1" d="M89.45,72.38A5.36,5.36,0,1,0,81,66.15a10.56,10.56,0,0,1,6.16,2.52A8.48,8.48,0,0,1,89.45,72.38Z"></path><path class="cls-2" d="M85.88,73.74a5.38,5.38,0,0,0,3.57-1.36,8.48,8.48,0,0,0-2.29-3.71A10.56,10.56,0,0,0,81,66.15a5.35,5.35,0,0,0,4.88,7.59Z"></path><path class="cls-2" d="M85.88,74.36a6,6,0,0,1-6-6,5.83,5.83,0,0,1,.47-2.29c-.56,0-1.13-.08-1.73-.08H54.25q-3.37,0-3.38-3.35v-2a3.6,3.6,0,0,1,.78-2.45,3.38,3.38,0,0,1,2.67-.9H86.9c.95,0,1.43-.44,1.43-1.31V50.29c0-.88-.48-1.32-1.43-1.32H52.43c-3.94,0-6.85.9-8.71,2.69a9.38,9.38,0,0,0-2.8,7.06v4.36c0,3.31,1,5.85,2.86,7.62s4.75,2.66,8.52,2.66H76.69q3.38,0,3.38,3.35v2.45a3.62,3.62,0,0,1-.78,2.45,3.38,3.38,0,0,1-2.67.9H42.48c-1,0-1.49.43-1.49,1.31V89.5c0,.87.5,1.31,1.49,1.31h36c3.94,0,6.85-.89,8.71-2.69A9.35,9.35,0,0,0,90,81.07V76.29A13.33,13.33,0,0,0,89.63,73,6,6,0,0,1,85.88,74.36Z"></path></svg><style>@media (prefers-color-scheme: light) { :root { filter: none; } }
@media (prefers-color-scheme: dark) { :root { filter: none; } }
</style></svg>