<?xml version="1.0" encoding="UTF-8"?><svg width="1em" height="1em" fill="currentColor" id="Layer_1" xmlns="http://www.w3.org/2000/svg" viewBox="0 0 372.8854 383.7175"><defs><style>.cls-1{fill:currentColor;}</style></defs><path d="M239.5591.1912c9.5805.4441,19.6779-.5999,29.193,0,31.3881,1.979,74.7384,14.7377,78.5054,52.1144.2662,2.6416-.5461,12.2472-.2477,13.0469.3324.8906,4.4569,4.2203,5.5563,5.5978,10.0376,12.5769,14.5281,26.2549,11.8053,42.4509-.4145,2.4655-2.8062,7.7846-2.4172,9.64.301,1.4359,4.5948,6.8287,5.7455,9.1263,6.4985,12.9754,6.8597,25.6041,1.2498,38.9581-.9296,2.2128-6.3119,10.6745-6.3384,11.3228-.0781,1.9113,3.013,9.393,3.3599,12.828,5.5881,55.3345-65.8801,54.7417-102.7263,49.5801-9.1919-1.2876-18.2714-3.6489-27.4243-5.1305.7914,28.9757,16.5084,55.2404,17.9925,84.1769,1.1807,23.0209-7.3844,45.6974-29.4698,55.1778-23.934,10.2739-42.5592,3.9467-44.6577-23.7176-.3972-5.2363,1.1511-12.8171.5964-17.0022-1.0686-8.0622-14.4946-36.0741-18.6767-45.0111-9.4698-20.2365-24.0539-49.4497-39.1817-65.6137-3.1603-3.3768-7.0029-5.9211-10.1362-9.3258-5.7922-6.2938-10.255-14.2236-14.1844-21.7818-5.7503,2.6691-11.9978,3.8168-18.3256,4.2021-12.9412.788-48.3718,1.4687-59.1881-3.003-11.4528-4.7349-19.2049-15.7637-20.5894-28.0656L.039,33.5133C1.4513,18.1459,14.2985,4.884,29.6863,3.2775c11.2082-1.1701,53.2983-1.4548,62.8204,1.3696,3.7286,1.106,6.7432,3.6035,10.422,4.5491C147.0664,1.5966,191.6129,2.5762,236.1363.8922c.5805-.022,1.0455-.6958,1.1772-.7009.2491-.0098.4994.0099.7485,0,.067-.0027-.304.8061,1.1152.7447l.3818-.7447ZM246.142,22.1191c-20.2476.6564-40.6714,1.2416-60.8595,2.0177-23.288.8953-46.7547,2.4064-69.6668,5.9485-.8627,1.1822.419,3.9155.4687,5.6305,1.2148,41.8807,1.6505,89.2999.0016,131.0607-.3615,9.1544-2.6086,9.0817,1.3266,18.8128,5.8233,14.4001,13.9191,19.0455,23.3194,29.8268,19.9951,22.9326,37.0695,59.1554,49.0256,87.2083,5.6061,13.1537,12.543,26.4149,12.4054,40.8024-.0232,2.4209-.8466,4.5756-.7792,7.4388.0554,2.3525.8242,10.6922,3.3551,10.8946,5.8371.4669,16.6264-5.1003,20.2421-9.7379,16.4365-21.082-2.2071-60.9142-7.5072-83.8509-3.5529-15.3758-10.0805-50.5771,14.2612-51.6767,7.4785-.3378,25.5426,5.3647,34.504,6.6542,22.2595,3.203,82.4906,8.8729,77.1719-27.7682-1.0578-7.287-7.825-11.8105-3.8437-19.9529,3.787-7.745,10.9632-9.7273,11.236-21.5361.2935-12.7053-7.4166-15.2198-11.7224-23.7957-4.0028-7.9722,2.7711-13.1573,3.6966-21.0733,2.0836-17.8209-6.3378-20.9942-16.0491-31.6964-5.6474-6.2236-1.4979-11.7691-1.376-18.5031.6276-34.6598-54.8248-37.4946-79.2102-36.7041ZM33.5486,25.1047c-7.4345.9513-11.0496,4.637-11.8053,12.1479l-.0354,128.7665c.1642,6.5487,4.2514,11.5835,10.8782,12.3265,11.6415,1.3052,38.3093,1.081,50.1848.0282,5.7257-.5076,9.8007-3.4929,10.8404-9.3701l-.3692-135.8989c-2.2724-5.6282-6.2745-7.5112-12.0904-8.1201-10.8757-1.1386-36.8967-1.25-47.603.12Z"/><path class="cls-1" d="M239.5591.1912l-.3818.7447c-1.4192.0614-1.0482-.7474-1.1152-.7447h1.4971Z"/></svg>