<?xml version="1.0" encoding="UTF-8"?><svg id="Layer_1" xmlns="http://www.w3.org/2000/svg" viewBox="0 0 418.3921 268.3899"><path d="M208.7385,53.8919c-44.7578,0-81.0413,36.2834-81.0413,81.0413s36.2834,81.0413,81.0413,81.0413,81.0413-36.2834,81.0413-81.0413-36.2833-81.0413-81.0413-81.0413ZM208.7553,188.5777c-29.6174,0-53.627-24.0096-53.627-53.6271s24.0095-53.6271,53.627-53.6271,53.6271,24.0096,53.6271,53.6271-24.0096,53.6271-53.6271,53.6271Z"/><path d="M416.9648,134.1949l-3.8091-4.7789v-.054c-.8892-1.1073-1.7883-2.2155-2.6921-3.3238l-.1106-.1388-.0002.0032c-42.8135-52.4703-101.9192-105.6754-170.2937-118.4677C152.9067-8.8704,76.2541,47.4883,21.509,108.591l-14.0515,17.5068-.8013.9982L-.0003,134.983l13.3497,16.8881-.0033-.0138c20.7559,27.3774,58.1573,59.6268,83.5222,76.217,111.843,73.152,210.605,28.6866,293.543-60.3759l20.7754-24.8069h0l6.0671-7.0041s.7229-1.2162-.2891-1.6924ZM191.6871,237.0528c-32.1486-3.8897-65.0996-21.1824-90.9747-39.9694-24.3555-17.6837-46.3572-39.0211-65.167-62.4265,39.814-46.9966,99.062-98.0299,163.464-102.4697,72.1271-4.9723,139.9347,50.7872,182.955,103.0582-45.4937,53.8561-114.7595,110.9445-190.2772,101.8074Z"/></svg>