<svg id="Layer_1" data-name="Layer 1" xmlns="http://www.w3.org/2000/svg" viewBox="0 0 395 142"><defs><style>.cls-1{fill:#ff7f0e;}.cls-2{fill:#3278c3;}</style></defs><path class="cls-1" d="M246.89,97.21c.34,0,.51.13.51.4v1.77c0,.27-.17.41-.51.41H240v9.65c0,.27-.16.4-.48.4h-2.39c-.32,0-.48-.13-.48-.4V99.79h-6.88c-.34,0-.51-.14-.51-.41V97.61c0-.27.17-.4.51-.4Z"/><path class="cls-1" d="M284.46,97.21c.33,0,.5.13.5.4v1.71c0,.27-.17.4-.5.4h-9.58a6.85,6.85,0,0,0-1.41.12,2.08,2.08,0,0,0-.9.39,1.39,1.39,0,0,0-.47.76,4.38,4.38,0,0,0-.14,1.18v.18h12.39c.32,0,.48.14.48.4v1.43q0,.39-.48.39H272v.31a4.38,4.38,0,0,0,.14,1.18,1.39,1.39,0,0,0,.47.76,2,2,0,0,0,.9.4,7.75,7.75,0,0,0,1.41.11h9.58c.33,0,.5.14.5.4v1.71c0,.27-.17.4-.5.4h-9.65a13.34,13.34,0,0,1-2.82-.25,4.68,4.68,0,0,1-1.9-.82,3.21,3.21,0,0,1-1.07-1.48,6.3,6.3,0,0,1-.34-2.21V102a6.24,6.24,0,0,1,.34-2.2,3.23,3.23,0,0,1,1.07-1.47,4.82,4.82,0,0,1,1.9-.83,13.27,13.27,0,0,1,2.82-.26Z"/><path class="cls-1" d="M323.48,97.21c.32,0,.48.13.48.4v1.77c0,.27-.16.41-.48.41h-9.75a7,7,0,0,0-1.42.12,2,2,0,0,0-.89.4,1.6,1.6,0,0,0-.47.74,4.44,4.44,0,0,0-.14,1.2v2.56A4.49,4.49,0,0,0,311,106a1.59,1.59,0,0,0,.47.75,2,2,0,0,0,.89.4,7,7,0,0,0,1.42.12h9.75c.32,0,.48.13.48.4v1.76c0,.27-.16.4-.48.4h-9.89a13.34,13.34,0,0,1-2.82-.25,4.68,4.68,0,0,1-1.9-.82,3.21,3.21,0,0,1-1.07-1.48,6.3,6.3,0,0,1-.34-2.21V102a6.24,6.24,0,0,1,.34-2.2,3.23,3.23,0,0,1,1.07-1.47,4.82,4.82,0,0,1,1.9-.83,13.27,13.27,0,0,1,2.82-.26Z"/><path class="cls-1" d="M349,97.21c.32,0,.48.13.48.4v4.69h10.26V97.61c0-.27.16-.4.48-.4h2.37c.33,0,.5.13.5.4v11.83c0,.27-.17.4-.5.4h-2.37c-.32,0-.48-.13-.48-.4v-4.8H349.47v4.8c0,.27-.16.4-.48.4h-2.37c-.33,0-.5-.13-.5-.4V97.61c0-.27.17-.4.5-.4Z"/><path class="cls-2" d="M103,58.84q1.08,0,1.08,1v17.9a11.43,11.43,0,0,0,.32,3,3.88,3.88,0,0,0,1,1.88,4.12,4.12,0,0,0,2,1,14.43,14.43,0,0,0,3.15.29h13.54a14.59,14.59,0,0,0,3.16-.29,4.12,4.12,0,0,0,2-1,3.77,3.77,0,0,0,1-1.88,12.47,12.47,0,0,0,.3-3V59.83c0-.66.35-1,1.07-1H137q1.08,0,1.08,1V78.41a17.91,17.91,0,0,1-.74,5.49,8,8,0,0,1-2.37,3.68,9.88,9.88,0,0,1-4.25,2,27.54,27.54,0,0,1-6.33.62H110.28a27.18,27.18,0,0,1-6.31-.62,9.85,9.85,0,0,1-4.23-2,8.06,8.06,0,0,1-2.39-3.68,17.28,17.28,0,0,1-.76-5.49V59.83c0-.66.37-1,1.12-1Z"/><path class="cls-2" d="M264.07,58.84c.74,0,1.12.33,1.12,1v4.26c0,.66-.38,1-1.12,1H242.7a13.84,13.84,0,0,0-3.15.29,4.32,4.32,0,0,0-2,1,3.73,3.73,0,0,0-1,1.88,12.79,12.79,0,0,0-.29,2.94v.45h27.62q1.08,0,1.08,1v3.54q0,1-1.08,1H236.2v.76a12.79,12.79,0,0,0,.29,2.94,3.76,3.76,0,0,0,1,1.89,4.41,4.41,0,0,0,2,1,13.77,13.77,0,0,0,3.15.3h21.37c.74,0,1.12.33,1.12,1v4.27c0,.66-.38,1-1.12,1H242.55a27.09,27.09,0,0,1-6.3-.62,9.85,9.85,0,0,1-4.23-2,8.16,8.16,0,0,1-2.4-3.68,17.59,17.59,0,0,1-.75-5.49V70.69a17.44,17.44,0,0,1,.75-5.48,8.32,8.32,0,0,1,2.4-3.66,10.1,10.1,0,0,1,4.23-2.06,26.41,26.41,0,0,1,6.3-.65Z"/><path class="cls-2" d="M279.68,58.84a11.29,11.29,0,0,1,1.86.13,3.64,3.64,0,0,1,1.36.52,4,4,0,0,1,1.06,1,11.87,11.87,0,0,1,1,1.73l10.17,21.54a.7.7,0,0,0,.68.41h.59a.7.7,0,0,0,.68-.41L307.2,62.25a10.94,10.94,0,0,1,1-1.73,3.8,3.8,0,0,1,1-1,3.61,3.61,0,0,1,1.34-.52,10.75,10.75,0,0,1,1.83-.13h5.24q2.53,0,3.42,1a5.78,5.78,0,0,1,.88,3.62V89.27c0,.66-.38,1-1.13,1h-5c-.72,0-1.08-.32-1.08-1V65.84q0-.45-.39-.45h-.44a.62.62,0,0,0-.64.36l-9.87,20.11a13.41,13.41,0,0,1-1.2,2,6.92,6.92,0,0,1-1.32,1.37,4.35,4.35,0,0,1-1.61.76,8.94,8.94,0,0,1-2.13.22h-2.35a8.85,8.85,0,0,1-2.12-.22,4.4,4.4,0,0,1-1.62-.76,6.92,6.92,0,0,1-1.32-1.37,14.31,14.31,0,0,1-1.19-2l-9.88-20.11a.62.62,0,0,0-.64-.36h-.43c-.27,0-.4.15-.4.45V89.27c0,.66-.36,1-1.07,1h-5c-.75,0-1.12-.32-1.12-1V63.51a5.71,5.71,0,0,1,.88-3.62c.58-.7,1.74-1,3.47-1Z"/><path class="cls-2" d="M362,58.84c.75,0,1.12.33,1.12,1v4.26c0,.66-.37,1-1.12,1H340.59a13.84,13.84,0,0,0-3.15.29,4.24,4.24,0,0,0-2,1,3.67,3.67,0,0,0-1.06,1.88,12.79,12.79,0,0,0-.29,2.94v.45h27.62q1.08,0,1.08,1v3.54q0,1-1.08,1H334.09v.76a12.79,12.79,0,0,0,.29,2.94,3.7,3.7,0,0,0,1.06,1.89,4.32,4.32,0,0,0,2,1,13.77,13.77,0,0,0,3.15.3H362c.75,0,1.12.33,1.12,1v4.27c0,.66-.37,1-1.12,1H340.45a27.18,27.18,0,0,1-6.31-.62,9.85,9.85,0,0,1-4.23-2,8.06,8.06,0,0,1-2.39-3.68,17.28,17.28,0,0,1-.76-5.49V70.69a17.13,17.13,0,0,1,.76-5.48,8.21,8.21,0,0,1,2.39-3.66,10.1,10.1,0,0,1,4.23-2.06,26.49,26.49,0,0,1,6.31-.65Z"/><path class="cls-1" d="M92.94,33.75C83.77,27,63.83,38,48.43,58.43S28,100.89,37.13,107.69c7.52,5.56,22.29-.87,35.86-14.64-11.43,11.26-23.54,16.51-30.33,12.26-.22-.13-.44-.26-.65-.41-7.7-5.45-5.14-22.41,5.38-39.7,1.28-2.12,2.66-4.25,4.17-6.35C65.42,39.52,83.7,28.86,92.39,35c6.57,4.68,5.78,17.65-1,32.06l0,.05C98.7,52.2,99.73,38.78,92.94,33.75Z"/><path class="cls-2" d="M181,67.3a8.78,8.78,0,0,0-2.42-6.13q-2.45-2.33-8.07-2.33H144.29q-1.47,0-1.47,1.35v25a.07.07,0,0,0,0,0h0v4c0,.66.38,1,1.13,1h5.28c.71,0,1.07-.32,1.07-1v-4h0s0,0,0,0v-8h20.24q5.63,0,8.07-2.18a7.52,7.52,0,0,0,2.35-5,14.23,14.23,0,0,0,.09-1.5v-.48C181.05,67.82,181,67.56,181,67.3Zm-8.48,3.44a5.31,5.31,0,0,1-3.52.92H150.3V65.57c0-.36.21-.54.64-.54H169a5,5,0,0,1,3.52,1,3.65,3.65,0,0,1,1,2.44A3.29,3.29,0,0,1,172.55,70.74Z"/><path class="cls-2" d="M225.2,89.13l-.29-.32L215,77.15c3-.16,5.25-.87,6.67-2.14a7.48,7.48,0,0,0,2.35-5,12,12,0,0,0,.09-1.5v-.48c0-.26,0-.52,0-.78a8.7,8.7,0,0,0-2.42-6.13q-2.44-2.33-8.07-2.33H187.31q-1.47,0-1.47,1.35v25a.43.43,0,0,0,0,0h0v4c0,.66.38,1,1.13,1h5.28c.71,0,1.07-.32,1.07-1v-4h0a.09.09,0,0,0,0,0v-8h13.24l6.7,8.09h0l3.63,4.39a1.56,1.56,0,0,0,.49.45,2,2,0,0,0,.88.13h6.3c.46,0,.72-.14.78-.44A.67.67,0,0,0,225.2,89.13ZM193.32,70.06V65.57c0-.36.21-.54.64-.54h18.09a5,5,0,0,1,3.52,1,3.7,3.7,0,0,1,1,2.44,3.34,3.34,0,0,1-1,2.28,5.31,5.31,0,0,1-3.52.92H193.32Z"/><path class="cls-1" d="M90.28,76.41a4,4,0,1,0-6.34-4.68,8,8,0,0,1,4.62,1.9A6.28,6.28,0,0,1,90.28,76.41Z"/><path class="cls-2" d="M87.6,77.44a4,4,0,0,0,2.68-1,6.28,6.28,0,0,0-1.72-2.78,8,8,0,0,0-4.62-1.9,3.93,3.93,0,0,0-.37,1.68A4,4,0,0,0,87.6,77.44Z"/><path class="cls-2" d="M87.6,77.9a4.5,4.5,0,0,1-4.49-4.49,4.44,4.44,0,0,1,.35-1.72c-.42,0-.84-.06-1.3-.06H63.85a2.23,2.23,0,0,1-2.54-2.51V67.59a2.71,2.71,0,0,1,.59-1.84,2.54,2.54,0,0,1,2-.67H88.36q1.08,0,1.08-1V59.83q0-1-1.08-1H62.49q-4.45,0-6.55,2a7,7,0,0,0-2.1,5.29v3.28A7.43,7.43,0,0,0,56,75.15c1.43,1.33,3.57,2,6.4,2H80.7a2.23,2.23,0,0,1,2.54,2.51V81.5a2.71,2.71,0,0,1-.59,1.84,2.54,2.54,0,0,1-2,.68H55c-.75,0-1.13.33-1.13,1v4.27c0,.66.38,1,1.13,1h27q4.45,0,6.55-2a7,7,0,0,0,2.1-5.29V79.35a9.78,9.78,0,0,0-.3-2.45A4.49,4.49,0,0,1,87.6,77.9Z"/></svg>