<svg width="20" height="13" viewBox="0 0 20 13" fill="none" xmlns="http://www.w3.org/2000/svg">
<path fill-rule="evenodd" clip-rule="evenodd" d="M3.80001 1.2C2.658 1.2 1.73223 2.12578 1.73223 3.26778C1.73223 4.40978 2.658 5.33556 3.80001 5.33556C4.58325 5.33556 5.26478 4.90009 5.61569 4.25805C5.6053 4.3782 5.6 4.49981 5.6 4.62266C5.6 5.05428 5.66545 5.47062 5.78696 5.86229C5.23638 6.28458 4.5475 6.53556 3.80001 6.53556C1.99526 6.53556 0.532226 5.07253 0.532226 3.26778C0.532226 1.46304 1.99526 0 3.80001 0C5.07054 0 6.17172 0.725093 6.7123 1.78404C6.34713 2.17826 6.05705 2.64305 5.8648 3.15565C5.80656 2.06579 4.90439 1.2 3.80001 1.2ZM15.0429 6.53556C14.5408 6.53556 14.0652 6.42233 13.6401 6.22C13.7961 5.84327 13.8986 5.43877 13.9381 5.01597C14.2577 5.21838 14.6366 5.33556 15.0429 5.33556C16.1849 5.33556 17.1107 4.40978 17.1107 3.26778C17.1107 2.12578 16.1849 1.2 15.0429 1.2C14.2628 1.2 13.5835 1.63202 13.2314 2.26988C12.997 1.92655 12.7128 1.61996 12.3891 1.36056C12.9824 0.536527 13.95 0 15.0429 0C16.8477 0 18.3107 1.46303 18.3107 3.26778C18.3107 5.07253 16.8477 6.53556 15.0429 6.53556ZM0 11.6046C0 9.30874 1.86117 7.44757 4.15704 7.44757C5.28132 7.44757 6.30082 7.89392 7.04868 8.61821C6.69957 8.8291 6.37799 9.08097 6.0906 9.36714C5.57189 8.91851 4.89588 8.64757 4.15704 8.64757C2.52391 8.64757 1.2 9.97148 1.2 11.6046H0ZM15.0427 8.64757C14.3652 8.64757 13.7406 8.87536 13.2416 9.25905C12.9412 8.97767 12.6065 8.7325 12.2444 8.5305C12.9827 7.85805 13.9645 7.44757 15.0427 7.44757C17.3386 7.44757 19.1997 9.30874 19.1997 11.6046H17.9997C17.9997 9.97149 16.6758 8.64757 15.0427 8.64757ZM7.70879 4.62276C7.70879 3.48076 8.63457 2.55498 9.77657 2.55498C10.9186 2.55498 11.8444 3.48076 11.8444 4.62276C11.8444 5.76476 10.9186 6.69054 9.77657 6.69054C8.63457 6.69054 7.70879 5.76476 7.70879 4.62276ZM9.77657 1.35498C7.97182 1.35498 6.50879 2.81802 6.50879 4.62276C6.50879 6.42751 7.97182 7.89054 9.77657 7.89054C11.5813 7.89054 13.0444 6.42751 13.0444 4.62276C13.0444 2.81802 11.5813 1.35498 9.77657 1.35498ZM6.82012 12.9587C6.82012 11.3256 8.14403 10.0017 9.77716 10.0017C11.4103 10.0017 12.7342 11.3256 12.7342 12.9587H13.9342C13.9342 10.6629 12.073 8.8017 9.77716 8.8017C7.48129 8.8017 5.62012 10.6629 5.62012 12.9587H6.82012Z" fill="black"/>
</svg>
