<svg width="1em" height="1em" viewBox="0 0 52 53" xmlns="http://www.w3.org/2000/svg">
<path d="M12.3518 40.4729C11.6445 40.4359 11.0641 40.1655 10.6106 39.6619C10.1572 39.1584 9.94903 38.5529 9.9861 37.8455L10.2478 32.8524L42.7033 34.5533V34.5533L43.8808 12.0841L48.874 12.3458C49.5813 12.3829 50.1617 12.6532 50.6152 13.1568C51.0686 13.6604 51.2768 14.2658 51.2397 14.9732L49.2771 52.4218L39.8142 41.9122L12.3518 40.4729V40.4729M-0.000197653 37.3222L1.83156 2.37011C1.86863 1.66275 2.13896 1.08235 2.64255 0.628917C3.14614 0.175484 3.75161 -0.0326962 4.45898 0.00437516L36.9145 1.7053C37.6218 1.74237 38.2022 2.0127 38.6556 2.51628C39.1091 3.01987 39.3173 3.62535 39.2802 4.33271L38.1026 26.8019C38.0656 27.5092 37.7952 28.0896 37.2916 28.5431C36.7881 28.9965 36.1826 29.2047 35.4752 29.1676L10.5095 27.8592L-0.000197653 37.3222V37.3222" fill="currentColor"/>
</svg>
