<svg width="13" height="12" viewBox="0 0 13 12" fill="none" xmlns="http://www.w3.org/2000/svg">
<path d="M5.82534 10.9948L5.02036 10.1932C4.08606 9.25833 3.31531 8.4537 2.7081 7.77933C2.1009 7.10496 1.62133 6.50299 1.26939 5.97343C0.91746 5.44387 0.677443 4.96155 0.549343 4.52647C0.421243 4.09139 0.368896 3.65055 0.392302 3.20394C0.440131 2.2913 0.785904 1.54518 1.42962 0.965575C2.07334 0.38597 2.85151 0.120082 3.76415 0.167911C4.26901 0.19437 4.74401 0.326355 5.18913 0.563865C5.63426 0.801376 6.01169 1.12296 6.32144 1.52862C6.6719 1.15756 7.08088 0.87719 7.5484 0.687509C8.01591 0.497828 8.5021 0.416217 9.00696 0.442675C9.9196 0.490505 10.6657 0.836278 11.2453 1.47999C11.8249 2.12371 12.0908 2.90189 12.043 3.81452C12.0196 4.26113 11.9214 4.69409 11.7486 5.1134C11.5757 5.5327 11.2866 5.98729 10.8812 6.47716C10.4758 6.96704 9.93598 7.51558 9.26161 8.12278C8.58724 8.72999 7.73661 9.44965 6.7097 10.2818L5.82534 10.9948V10.9948M5.90777 9.42195C6.88358 8.63583 7.68811 7.96 8.32136 7.39445C8.9546 6.8289 9.45756 6.3344 9.83023 5.91097C10.2029 5.48753 10.4662 5.10704 10.6202 4.7695C10.7742 4.43195 10.8601 4.09328 10.8779 3.75347C10.9084 3.17093 10.7397 2.67531 10.3717 2.2666C10.0037 1.85789 9.52843 1.63827 8.9459 1.60774C8.48958 1.58383 8.0605 1.69034 7.65866 1.92727C7.25682 2.1642 6.97265 2.47789 6.80616 2.86832V2.86832L5.69934 2.81031V2.81031C5.57457 2.40462 5.32475 2.06295 4.94988 1.78531C4.57501 1.50767 4.15941 1.35689 3.70309 1.33298C3.12056 1.30245 2.62494 1.47119 2.21623 1.83919C1.80752 2.20719 1.5879 2.68246 1.55737 3.265C1.53956 3.60481 1.58959 3.95061 1.70745 4.3024C1.82531 4.65419 2.04743 5.06012 2.37379 5.52019C2.70016 5.98026 3.14868 6.52462 3.71934 7.15327C4.29 7.78191 5.01947 8.53814 5.90777 9.42195V9.42195M6.11613 5.44616V5.44616V5.44616V5.44616V5.44616V5.44616V5.44616V5.44616V5.44616V5.44616V5.44616V5.44616V5.44616V5.44616V5.44616V5.44616V5.44616V5.44616V5.44616V5.44616V5.44616" fill="white"/>
</svg>
