<?xml version="1.0" encoding="UTF-8"?><svg id="Layer_1" xmlns="http://www.w3.org/2000/svg" viewBox="0 0 373.8966 393.9814"><path d="M210.5797,6.9245c2.8069,1.9478,6.461,1.4968,9.8881,2.4676,14.8549,4.208,27.155,17.5726,31.4922,32.1963,11.1759,37.6818-13.7835,72.3605-15.1774,109.3337,9.153-1.4884,18.2325-3.8458,27.4243-5.1407,36.5406-5.1479,107.5761-5.8653,102.7211,48.9215-.284,3.2053-3.4615,12.3958-3.3501,13.5982.0626.6756,5.6253,9.5224,6.5754,11.8632,4.8725,12.005,5.1087,23.4922,0,35.5203-1.3856,3.2623-6.8705,10.4242-7.2594,12.1635-.2698,1.2066,2.0997,7.5348,2.4418,9.6432,2.6121,16.0964-1.7641,30.0059-11.8073,42.5359-1.1696,1.4592-5.5832,5.0286-5.8492,6.1703-.2424,1.0403.7758,7.7644.6221,10.3425-2.0022,33.5781-34.6468,47.7756-63.4481,52.6781-2.5666.4369-5.6001-.2773-7.6535,1.7063h-77.0994c-5.2244-2.6363-11.8161-1.212-17.583-1.5077-13.9211-.7138-28.0365-1.7373-41.9223-2.9958-11.1275-1.0085-26.2472-4.5487-36.7041-4.5191-2.0953.0059-7.5005,3.6897-10.422,4.558-10.032,2.9816-48.7709,2.3902-60.6961,1.4938-17.3139-1.3014-30.5957-14.4113-31.8176-31.8702-3.0427-43.4741,2.3701-90.4671.007-134.311,1.1377-12.7004,8.7946-23.9921,20.5894-28.8704,10.8787-4.4994,46.9169-3.8394,59.9367-3.009,6.0777.3876,12.0501,1.6998,17.577,4.2104,7.2076-17.8637,22.7627-27.7413,33.5278-42.9432,11.4164-16.1217,21.8347-36.5216,30.2122-54.4788,4.5459-9.7441,16.6488-34.7049,18.2622-43.9863.7545-4.3404-.8229-12.3125-.4196-17.6363.9315-12.2988,5.9159-24.5807,18.7039-28.1345h11.2281ZM115.5157,361.6671l58.7675,5.2498c24.4032.0459,48.9332,1.5726,73.3183,2.2885,24.3074.7137,79.5848-2.6764,78.7146-37.0261-.206-8.1324-4.4932-11.6693,2.2374-19.1756,9.4455-10.5339,16.9422-13.0741,15.1744-30.3619-.8826-8.6318-7.7652-13.8905-3.228-22.1677,4.64-8.4648,11.5424-11.535,11.2652-23.5503-.2639-11.4419-7.0324-13.8183-11.253-21.5611-3.6775-6.7465,1.2882-11.2039,3.1-17.0208,6.9728-22.3858-12.7277-30.1148-30.9507-32.3236-18.3307-2.2219-37.002.0341-55.0625,3.1424-13.3507,2.2977-31.479,11.0721-39.946-4.6984-10.7163-19.9601,8.5628-62.5486,12.7883-84.0123,3.4363-17.4546,4.7566-42.5083-15.5346-49.736-2.0488-.7298-9.2688-2.9799-10.698-1.2939-2.926,3.4519.2426,21.654-1.1648,27.3328-2.2102,8.918-8.5614,22.2969-12.3244,31.1477-12.1261,28.5209-29.2551,64.9746-49.7735,88.1293-9.3517,10.5533-16.8252,14.8955-22.5715,29.1345-3.936,9.7533-1.6889,9.6679-1.3266,18.8495,1.7111,43.3583-1.3798,87.8397-.0042,131.3171l-1.5281,6.3361ZM32.2331,212.6046c-6.4093,1.5728-8.9553,5.8557-9.524,12.2074l-.039,128.2641c.7554,8.7926,4.4628,12.2707,13.1386,13.0858,11.5854,1.0884,33.2222.9544,44.9265.0396,6.9025-.5395,12.4111-2.643,13.8382-10.1348l-.3692-136.1644c-1.5769-4.0082-4.7466-6.8225-9.0708-7.4115-15.9221-2.1688-36.4913,1.3334-52.9004.1138Z"/></svg>
