<svg width="34" height="34" viewBox="0 0 34 34" fill="none" xmlns="http://www.w3.org/2000/svg">
<path d="M0 9.0375C0 6.5375 0.88125 4.40625 2.64375 2.64375C4.40625 0.88125 6.5375 0 9.0375 0V3.0375C7.3875 3.0375 5.975 3.625 4.8 4.8C3.625 5.975 3.0375 7.3875 3.0375 9.0375H0V9.0375M6.4875 26.625C4.2125 24.35 3.075 21.6125 3.075 18.4125C3.075 15.2125 4.2125 12.475 6.4875 10.2L9.1125 7.5375L9.5625 7.9875C10.2875 8.7125 10.65 9.59375 10.65 10.6313C10.65 11.6688 10.2875 12.55 9.5625 13.275L9.0375 13.8C8.7375 14.1 8.5875 14.4562 8.5875 14.8687C8.5875 15.2812 8.7375 15.6375 9.0375 15.9375L10.3875 17.2875C11.0375 17.9375 11.3625 18.725 11.3625 19.65C11.3625 20.575 11.0375 21.3625 10.3875 22.0125V22.0125L12 23.625V23.625C13.1 22.525 13.65 21.2063 13.65 19.6688C13.65 18.1313 13.0875 16.8 11.9625 15.675L11.1375 14.85V14.85C11.7875 14.2 12.25 13.4688 12.525 12.6562C12.8 11.8438 12.9125 11.0125 12.8625 10.1625L19.575 3.45C19.875 3.15 20.2312 3 20.6437 3C21.0562 3 21.4125 3.15 21.7125 3.45C22.0125 3.75 22.1625 4.10625 22.1625 4.51875C22.1625 4.93125 22.0125 5.2875 21.7125 5.5875L14.7 12.6L16.275 14.175L25.3125 5.175C25.6125 4.875 25.9625 4.725 26.3625 4.725C26.7625 4.725 27.1125 4.875 27.4125 5.175C27.7125 5.475 27.8625 5.825 27.8625 6.225C27.8625 6.625 27.7125 6.975 27.4125 7.275L18.4125 16.3125L19.9875 17.8875L27.9375 9.9375C28.2375 9.6375 28.5938 9.4875 29.0063 9.4875C29.4188 9.4875 29.775 9.6375 30.075 9.9375C30.375 10.2375 30.525 10.5938 30.525 11.0063C30.525 11.4188 30.375 11.775 30.075 12.075L22.125 20.025L23.7 21.6L29.775 15.525C30.075 15.225 30.4313 15.075 30.8438 15.075C31.2562 15.075 31.6125 15.225 31.9125 15.525C32.2125 15.825 32.3625 16.1813 32.3625 16.5938C32.3625 17.0062 32.2125 17.3625 31.9125 17.6625L22.9125 26.625C20.6375 28.9 17.9 30.0375 14.7 30.0375C11.5 30.0375 8.7625 28.9 6.4875 26.625V26.625M24.0375 33.075V30.0375C25.6875 30.0375 27.1 29.45 28.275 28.275C29.45 27.1 30.0375 25.6875 30.0375 24.0375H33.075C33.075 26.5375 32.1937 28.6687 30.4312 30.4312C28.6687 32.1937 26.5375 33.075 24.0375 33.075V33.075" fill="#AC2A5D"/>
</svg>
